<svg width="1135" height="985" viewBox="0 0 1135 985" fill="none" xmlns="http://www.w3.org/2000/svg">
<path fill-rule="evenodd" clip-rule="evenodd" d="M1139.18 258.318C1184.28 239.634 1217 183.878 1217 118C1217 36.8141 1167.3 -29 1106 -29C1044.7 -29 995 36.8141 995 118C995 155.974 1005.87 190.585 1023.72 216.671C938.167 276.345 821.216 314.107 704.5 213.5C479.437 19.5 0 -213 0 -213C0 -213 381.548 286.579 493 385.5C513.237 403.461 536.353 418.818 561.539 431.915C430.966 386.042 293.437 297.5 293.437 297.5C293.437 297.5 376.986 526.579 488.437 625.5C492.727 629.307 497.146 633 501.686 636.581C401.264 590.756 315.437 535.5 315.437 535.5C315.437 535.5 398.986 764.58 510.437 863.5C706.514 1037.53 1172.94 972 1172.94 972L1154.94 717.5L1172.94 570C1172.94 570 1160.79 574.687 1140.21 582.26L1133.81 491.843C1147.74 490.173 1155.5 489 1155.5 489L1146.8 365.935L1150.94 332C1150.94 332 1148.72 332.857 1144.57 334.429L1139.18 258.318Z" fill="#1B95E0"/>
</svg>
