<svg width="15" height="18" viewBox="0 0 15 18" fill="none" xmlns="http://www.w3.org/2000/svg">
<mask id="path-1-inside-1" fill="white">
<path fill-rule="evenodd" clip-rule="evenodd" d="M12 6.5C12 9.53757 9.53757 12 6.5 12C3.46243 12 1 9.53757 1 6.5C1 3.46243 3.46243 1 6.5 1C9.53757 1 12 3.46243 12 6.5ZM9.25829 12.3874C8.42097 12.7804 7.48613 13 6.5 13C2.91015 13 0 10.0899 0 6.5C0 2.91015 2.91015 0 6.5 0C10.0899 0 13 2.91015 13 6.5C13 8.38464 12.1979 10.0819 10.9165 11.2692L14.6641 16.8906L13 18L9.25829 12.3874Z"/>
</mask>
<path d="M9.25829 12.3874L10.9224 11.278L9.96729 9.84539L8.40858 10.5769L9.25829 12.3874ZM10.9165 11.2692L9.55722 9.80207L8.30695 10.9604L9.25238 12.3786L10.9165 11.2692ZM14.6641 16.8906L15.7735 18.5547L17.4376 17.4453L16.3282 15.7812L14.6641 16.8906ZM13 18L11.3359 19.1094L12.4453 20.7735L14.1094 19.6641L13 18ZM6.5 14C10.6421 14 14 10.6421 14 6.5H10C10 8.433 8.433 10 6.5 10V14ZM-1 6.5C-1 10.6421 2.35786 14 6.5 14V10C4.567 10 3 8.433 3 6.5H-1ZM6.5 -1C2.35786 -1 -1 2.35786 -1 6.5H3C3 4.567 4.567 3 6.5 3V-1ZM14 6.5C14 2.35786 10.6421 -1 6.5 -1V3C8.433 3 10 4.567 10 6.5H14ZM6.5 15C7.7859 15 9.01033 14.7131 10.108 14.198L8.40858 10.5769C7.83162 10.8477 7.18637 11 6.5 11V15ZM-2 6.5C-2 11.1944 1.80558 15 6.5 15V11C4.01472 11 2 8.98528 2 6.5H-2ZM6.5 -2C1.80558 -2 -2 1.80558 -2 6.5H2C2 4.01472 4.01472 2 6.5 2V-2ZM15 6.5C15 1.80558 11.1944 -2 6.5 -2V2C8.98528 2 11 4.01472 11 6.5H15ZM12.2757 12.7363C13.9486 11.1864 15 8.96449 15 6.5H11C11 7.80479 10.4473 8.97746 9.55722 9.80207L12.2757 12.7363ZM9.25238 12.3786L13 18L16.3282 15.7812L12.5806 10.1598L9.25238 12.3786ZM13.5547 15.2265L11.8906 16.3359L14.1094 19.6641L15.7735 18.5547L13.5547 15.2265ZM14.6641 16.8906L10.9224 11.278L7.59419 13.4968L11.3359 19.1094L14.6641 16.8906Z" fill="#333333" mask="url(#path-1-inside-1)"/>
</svg>
